<svg width="148" height="324" viewBox="0 0 148 324" fill="none" xmlns="http://www.w3.org/2000/svg">
<path d="M78.6211 19.447C78.6211 8.70401 69.1461 0 54.9381 0C43.1301 0 39.0721 6.51601 39.0721 6.51601C39.0721 6.51601 27.9111 8.928 27.9111 22.797C27.9111 35.689 27.9111 57.87 27.9111 57.87H46.2501H47.1851H60.7291H75.4521V28.986C76.6151 27.557 78.6211 24.38 78.6211 19.447ZM56.5671 50.856C55.5741 50.856 54.4901 50.673 53.3591 50.354V57.869H37.1321V38.535C37.0211 38.225 36.9122 37.893 36.8062 37.544C29.6122 36.857 29.9101 24.968 34.1851 24.968C34.2431 24.968 34.3001 24.973 34.3561 24.981V24.98C52.3261 30.725 64.4111 21.312 68.3651 14.772C68.3651 19.336 73.4161 23.786 75.2131 24.192C74.9461 40.502 63.2781 50.856 56.5671 50.856Z" fill="#311643"/>
<path d="M53.3594 52.121V50.353C54.4904 50.672 55.5744 50.855 56.5674 50.855C63.2794 50.855 74.9474 40.501 75.2124 24.19C73.4154 23.784 68.3644 19.334 68.3644 14.77C64.4104 21.311 52.3253 30.723 34.3553 24.978V24.979C34.2993 24.971 34.2433 24.966 34.1843 24.966C29.9093 24.966 29.6113 36.855 36.8053 37.542C36.9113 37.891 37.0203 38.223 37.1313 38.533V51.539L24.4224 57.53V73.216H66.6554V56.116L53.3594 52.121Z" fill="#FCBEB7"/>
<path d="M66.6555 73.218V56.118L53.3585 52.122V50.354C49.5985 49.293 45.3245 46.723 42.1865 44.325L66.6555 73.218Z" fill="#F9AFAB"/>
<path d="M44.6926 37.962C47.1376 37.962 49.1196 35.98 49.1196 33.535C49.1196 31.09 47.1376 29.108 44.6926 29.108C42.2477 29.108 40.2656 31.09 40.2656 33.535C40.2656 35.98 42.2477 37.962 44.6926 37.962Z" fill="#F49795"/>
<path d="M74.6425 29.86C74.0815 32.833 73.1405 35.544 71.9525 37.956C69.6115 37.84 67.7495 35.905 67.7495 33.535C67.7495 31.09 69.7314 29.109 72.1754 29.109C73.0884 29.108 73.9375 29.385 74.6425 29.86Z" fill="#F49795"/>
<path d="M67.1558 20.072C63.9238 20.072 61.2547 22.529 60.9187 25.674C59.1617 24.847 57.6107 25.295 56.7917 25.671C56.4537 22.528 53.7867 20.072 50.5557 20.072C47.0967 20.072 44.2827 22.886 44.2827 26.345C44.2827 29.804 47.0967 32.618 50.5557 32.618C53.9377 32.618 56.7018 29.928 56.8228 26.575C57.3438 26.275 58.9987 25.511 60.8887 26.582C61.0137 29.931 63.7768 32.618 67.1558 32.618C70.6148 32.618 73.4287 29.804 73.4287 26.345C73.4287 22.886 70.6148 20.072 67.1558 20.072ZM50.5557 31.797C47.5497 31.797 45.1027 29.351 45.1027 26.345C45.1027 23.338 47.5487 20.892 50.5557 20.892C53.5627 20.892 56.0087 23.338 56.0087 26.345C56.0077 29.351 53.5617 31.797 50.5557 31.797ZM67.1558 31.797C64.1498 31.797 61.7028 29.351 61.7028 26.345C61.7028 23.338 64.1488 20.892 67.1558 20.892C70.1628 20.892 72.6088 23.338 72.6088 26.345C72.6078 29.351 70.1618 31.797 67.1558 31.797Z" fill="white"/>
<path d="M67.1595 28.076C66.6655 28.076 66.2646 27.675 66.2646 27.181V25.509C66.2646 25.015 66.6655 24.614 67.1595 24.614C67.6535 24.614 68.0546 25.015 68.0546 25.509V27.181C68.0546 27.675 67.6535 28.076 67.1595 28.076Z" fill="#311643"/>
<path d="M50.8276 28.076C50.3326 28.076 49.9326 27.675 49.9326 27.181V25.509C49.9326 25.015 50.3336 24.614 50.8276 24.614C51.3216 24.614 51.7225 25.015 51.7225 25.509V27.181C51.7225 27.675 51.3216 28.076 50.8276 28.076Z" fill="#311643"/>
<path d="M57.2183 40.989C55.6203 40.989 54.5322 40.388 53.8732 39.841C53.0422 39.151 52.6973 38.398 52.6823 38.366C52.5893 38.159 52.6812 37.916 52.8882 37.823C53.0942 37.73 53.3362 37.822 53.4302 38.027C53.4772 38.129 54.6122 40.508 57.9092 40.127C58.1352 40.101 58.3383 40.262 58.3643 40.487C58.3903 40.712 58.2292 40.916 58.0032 40.942C57.7292 40.975 57.4673 40.989 57.2183 40.989Z" fill="#311643"/>
<path d="M83.9795 301.405L85.6584 308.384L103.969 314.134L101.336 301.405H83.9795Z" fill="#FCBEB7"/>
<path d="M22.2845 301.405L22.7845 310.026L21.6436 310.446L20.8916 314.137L39.1846 308.384L39.6416 301.405H22.2845Z" fill="#FCBEB7"/>
<path d="M118.092 316.845L103.206 310.446L103.969 314.135L85.6582 308.384V313.631C85.6582 315.476 86.6233 317.148 88.1403 318.089L89.7152 322.591C89.8512 322.98 90.2182 323.241 90.6312 323.241C91.1672 323.241 91.6012 322.807 91.6012 322.271V319.342L104.116 323.241H116.776C118.617 323.241 120.109 321.749 120.109 319.908C120.109 318.575 119.315 317.371 118.092 316.845Z" fill="#2F3D6C"/>
<path d="M39.2016 313.58L39.1856 308.333L20.8916 314.138L21.6436 310.447L6.77663 316.89C5.55463 317.42 4.76457 318.626 4.76857 319.958C4.77357 321.799 6.27059 323.287 8.11159 323.281L20.7716 323.244L33.7127 319.171L33.7216 322.237C33.7236 322.773 34.1586 323.206 34.6946 323.204C35.1066 323.203 35.4737 322.941 35.6087 322.552L37.3167 317.622C38.4897 316.642 39.2056 315.175 39.2016 313.58Z" fill="#2F3D6C"/>
<path d="M25.0534 125.886L18.2993 154.486C16.3493 162.745 15.5803 171.24 16.0173 179.715L22.2854 301.404H39.6423L47.0534 175.113L83.9794 301.404H101.336L70.7754 125.885H25.0534V125.886Z" fill="#6277D7"/>
<path d="M48.0193 65.481C51.1013 65.481 53.5664 62.513 55.2284 59.507H37.6523C40.3333 62.505 44.0053 65.481 48.0193 65.481Z" fill="white"/>
<path d="M80.9052 65.711C78.1962 61.494 74.0761 58.377 69.2811 56.917L57.6331 53.37C57.6331 53.86 56.7811 56.7 55.2291 59.507C53.5671 62.513 51.1021 65.481 48.0201 65.481C44.0051 65.481 40.3341 62.505 37.6531 59.507C34.9331 56.465 33.2341 53.401 33.2341 53.401L21.1331 59.008C16.1801 61.303 12.5331 65.718 11.2161 71.016L2.28809 106.918L18.7051 106.922L22.7341 92.981L25.0541 125.886H70.7761L74.9301 90.863L85.821 100.659L94.8561 87.425L80.9052 65.711Z" fill="#FE9ECC"/>
<path d="M146.801 52.121L146.105 52.005L145.996 51.579C145.791 50.777 145.095 50.197 144.269 50.142L134.508 49.482L127.718 46.721L131.509 41.99C132.137 41.206 132.049 40.069 131.308 39.392L123.311 45.554C122.526 46.158 121.875 46.919 121.399 47.787L119.201 51.792L119.191 51.779L85.8203 100.66L90.4054 104.849C94.1964 108.312 100.246 107.187 102.538 102.592L124.218 59.131L132.119 59.883C133.896 60.052 135.689 59.873 137.398 59.357L141.58 58.093C142.29 57.878 142.661 57.098 142.378 56.412L145.357 55.839C145.914 55.732 146.334 55.274 146.394 54.71L146.445 54.228H146.627C147.212 54.228 147.687 53.753 147.687 53.168C147.687 52.648 147.313 52.206 146.801 52.121Z" fill="#FCBEB7"/>
<path d="M94.8555 87.425L82.1685 97.374L85.8204 100.659L94.8555 87.425Z" fill="#FF78BA"/>
<path d="M48.4716 69.757C45.9296 69.757 43.3436 68.983 40.7836 67.458C38.7516 66.247 36.7315 64.562 34.7795 62.448C31.4665 58.861 29.4536 55.198 29.4346 55.161L30.1075 54.849C30.1275 54.885 32.0846 58.434 35.3386 61.953C37.2406 64.011 39.2036 65.648 41.1726 66.82C43.6126 68.273 46.0686 69.009 48.4716 69.009C50.7426 69.009 52.7875 68.25 54.5505 66.754C55.9765 65.543 57.2266 63.849 58.2656 61.719C60.0476 58.064 60.5956 54.309 60.6016 54.272L61.3246 54.492C61.3026 54.647 60.7696 58.286 58.9366 62.046C57.8526 64.27 56.5395 66.045 55.0345 67.323C53.1315 68.939 50.9246 69.757 48.4716 69.757Z" fill="white"/>
<path d="M75.7162 222.996C80.3046 222.996 84.0242 219.276 84.0242 214.688C84.0242 210.1 80.3046 206.38 75.7162 206.38C71.1278 206.38 67.4082 210.1 67.4082 214.688C67.4082 219.276 71.1278 222.996 75.7162 222.996Z" fill="#4A5EA3"/>
<path d="M32.1893 222.996C36.7777 222.996 40.4973 219.276 40.4973 214.688C40.4973 210.1 36.7777 206.38 32.1893 206.38C27.6009 206.38 23.8813 210.1 23.8813 214.688C23.8813 219.276 27.6009 222.996 32.1893 222.996Z" fill="#4A5EA3"/>
<path d="M79.7792 64.124C78.9422 64.676 77.9392 64.997 76.8612 64.997C73.9312 64.997 71.5542 62.621 71.5542 59.69C71.5542 59.059 71.6642 58.454 71.8672 57.893C74.9632 59.301 77.6802 61.436 79.7792 64.124Z" fill="#FF78BA"/>
<path d="M21.2045 62.701C21.2045 65.631 18.8295 68.008 15.8975 68.008C14.7205 68.008 13.6334 67.625 12.7534 66.976C14.4074 63.83 16.9675 61.22 20.1365 59.508C20.8075 60.396 21.2045 61.502 21.2045 62.701Z" fill="#FF78BA"/>
<path d="M37.9031 135.868L76.0121 134.429C76.6981 134.403 77.2321 133.826 77.2071 133.141L75.1681 79.161C75.1421 78.475 74.5651 77.941 73.8801 77.966L35.7711 79.405C35.0851 79.431 34.551 80.008 34.576 80.693L36.6151 134.673C36.6411 135.359 37.2171 135.894 37.9031 135.868Z" fill="#4A5EA3"/>
<path d="M37.7834 132.958L75.6994 137.053C76.3814 137.127 76.9945 136.633 77.0675 135.951L82.8684 82.245C82.9424 81.563 82.4484 80.95 81.7664 80.876L43.8504 76.781C43.1684 76.707 42.5554 77.201 42.4814 77.883L36.6815 131.589C36.6085 132.271 37.1014 132.884 37.7834 132.958Z" fill="#4A5EA3"/>
<path d="M82.8913 111.495C82.8613 110.773 82.5403 110.093 82.0013 109.611L81.2893 108.974L81.2563 108.637C81.1303 107.365 80.0913 106.378 78.8153 106.315L74.2073 106.089L76.6353 102.34C76.7983 102.089 76.8482 101.781 76.7742 101.491C76.5932 100.787 75.7793 100.463 75.1643 100.851L62.0413 109.131L18.7053 106.922L2.2873 106.918L0.309272 113.916C-1.23573 119.381 3.22426 124.68 8.87226 124.091L62.0413 118.553L77.1603 120.877L77.8333 120.695C78.9923 120.382 79.8013 119.335 79.8123 118.135L79.8212 117.201L79.8472 117.189C80.8382 116.746 81.4632 115.748 81.4302 114.663L81.4133 114.114L81.9693 113.632C82.5863 113.096 82.9253 112.31 82.8913 111.495Z" fill="#FCBEB7"/>
<path d="M10.2186 119.445C10.2186 121.422 9.17562 123.155 7.60962 124.125C3.48362 123.919 0.251648 120.577 0.0146484 116.594C0.978648 115.006 2.72463 113.946 4.71863 113.946C7.75663 113.945 10.2186 116.407 10.2186 119.445Z" fill="#F9AFAB"/>
<path d="M101.494 104.172C98.8404 107.285 94.0604 107.835 90.7554 105.148C91.0524 102.391 93.3873 100.244 96.2223 100.244C98.7143 100.244 100.819 101.901 101.494 104.172Z" fill="#F9AFAB"/>
<path d="M39.8623 135.794C39.8623 135.794 73.7163 142.779 73.7103 142.745C73.7043 142.711 72.6624 136.725 72.6624 136.725L57.7804 135.118L39.8623 135.794Z" fill="#4A5EA3"/>
<path d="M39.1201 79.279L39.2332 107.968L42.3441 79.157L39.1201 79.279Z" fill="#2F3D6C"/>
</svg>
