<svg width="86" height="119" viewBox="0 0 86 119" fill="none" xmlns="http://www.w3.org/2000/svg">
<g clip-path="url(#clip0)">
<path d="M35.8102 54.375L18.8128 65.3092C17.1681 66.3775 15.2632 66.9769 13.3031 67.043C11.3431 67.109 9.40208 66.6393 7.68916 65.6842C4.18587 63.75 1.99902 60.1244 1.99902 56.1237V13.7487C1.99955 10.1021 3.4485 6.60511 6.0272 4.02679C8.60589 1.44847 12.1031 1.41694e-05 15.7497 1.42069e-05H20.9365C18.9775 -0.00391639 17.054 0.52286 15.3703 1.52439C13.6866 2.52591 12.3056 3.96479 11.374 5.68817C10.4333 7.40556 9.97175 9.34434 10.0377 11.3014C10.1037 13.2584 10.6948 15.1617 11.749 16.8119L22.6872 33.8112L35.8122 54.375H35.8102Z" fill="url(#paint0_linear)"/>
<path d="M22.6228 33.8112L11.6847 16.8118C10.6164 15.1671 10.017 13.2622 9.95095 11.3021C9.88487 9.34206 10.3546 7.40108 11.3097 5.68816C13.2478 2.18684 16.8715 0 20.8722 0H63.2472C66.8934 0.000523318 70.3901 1.44921 72.9684 4.02747C75.5467 6.60574 76.9954 10.1025 76.9959 13.7487V18.9375C77 16.9787 76.4735 15.0553 75.4724 13.3716C74.4712 11.6879 73.0327 10.3068 71.3097 9.375C69.5921 8.4339 67.6529 7.97214 65.6955 8.03812C63.738 8.10409 61.8344 8.69538 60.184 9.75L43.1215 20.625L22.6248 33.8092L22.6228 33.8112Z" fill="url(#paint1_linear)"/>
<path d="M43.1851 20.625L60.1844 9.68684C61.8293 8.61822 63.7346 8.01858 65.6951 7.9525C67.6556 7.88642 69.5969 8.35641 71.3101 9.31184C74.8094 11.25 77.0002 14.8737 77.0002 18.8743V61.2493C76.9997 64.8959 75.5507 68.3929 72.972 70.9713C70.3933 73.5496 66.8961 74.998 63.2495 74.998H58.0627C60.0215 75.0022 61.9449 74.4757 63.6286 73.4745C65.3123 72.4733 66.6934 71.0349 67.6252 69.3118C68.5663 67.5942 69.028 65.6551 68.9621 63.6976C68.8961 61.7402 68.3048 59.8365 67.2502 58.1862L56.312 41.1868L43.187 20.625H43.1851Z" fill="url(#paint2_linear)"/>
<path d="M56.3731 41.1868L67.3092 58.1862C68.3779 59.8311 68.9775 61.7364 69.0436 63.6969C69.1097 65.6573 68.6397 67.5987 67.6842 69.3118C65.7481 72.8112 62.1224 74.998 58.1217 74.998H15.7487C12.1025 74.9975 8.60576 73.5488 6.0275 70.9705C3.44923 68.3923 2.00055 64.8955 2.00002 61.2493V56.0605C1.99609 58.0196 2.52287 59.9431 3.52439 61.6268C4.52592 63.3105 5.9648 64.6914 7.68818 65.623C9.40557 66.5637 11.3443 67.0253 13.3014 66.9593C15.2584 66.8933 17.1617 66.3023 18.8119 65.248L35.8132 54.3118L56.375 41.1868H56.3731Z" fill="url(#paint3_linear)"/>
</g>
<path d="M15.552 92.248V109H12.192V101.872H5.016V109H1.656V92.248H5.016V99.136H12.192V92.248H15.552ZM31.4111 95.704V109H28.0271V107.32C27.5951 107.896 27.0271 108.352 26.3231 108.688C25.6351 109.008 24.8831 109.168 24.0671 109.168C23.0271 109.168 22.1071 108.952 21.3071 108.52C20.5071 108.072 19.8751 107.424 19.4111 106.576C18.9631 105.712 18.7391 104.688 18.7391 103.504V95.704H22.0991V103.024C22.0991 104.08 22.3631 104.896 22.8911 105.472C23.4191 106.032 24.1391 106.312 25.0511 106.312C25.9791 106.312 26.7071 106.032 27.2351 105.472C27.7631 104.896 28.0271 104.08 28.0271 103.024V95.704H31.4111ZM38.0863 97.648C38.5183 97.008 39.1103 96.488 39.8623 96.088C40.6303 95.688 41.5023 95.488 42.4783 95.488C43.6143 95.488 44.6383 95.768 45.5503 96.328C46.4783 96.888 47.2063 97.688 47.7343 98.728C48.2783 99.752 48.5503 100.944 48.5503 102.304C48.5503 103.664 48.2783 104.872 47.7343 105.928C47.2063 106.968 46.4783 107.776 45.5503 108.352C44.6383 108.928 43.6143 109.216 42.4783 109.216C41.4863 109.216 40.6143 109.024 39.8623 108.64C39.1263 108.24 38.5343 107.728 38.0863 107.104V109H34.7263V91.24H38.0863V97.648ZM45.1183 102.304C45.1183 101.504 44.9503 100.816 44.6143 100.24C44.2943 99.648 43.8623 99.2 43.3183 98.896C42.7903 98.592 42.2143 98.44 41.5903 98.44C40.9823 98.44 40.4063 98.6 39.8623 98.92C39.3343 99.224 38.9023 99.672 38.5663 100.264C38.2463 100.856 38.0863 101.552 38.0863 102.352C38.0863 103.152 38.2463 103.848 38.5663 104.44C38.9023 105.032 39.3343 105.488 39.8623 105.808C40.4063 106.112 40.9823 106.264 41.5903 106.264C42.2143 106.264 42.7903 106.104 43.3183 105.784C43.8623 105.464 44.2943 105.008 44.6143 104.416C44.9503 103.824 45.1183 103.12 45.1183 102.304ZM54.3519 91.24V109H50.9919V91.24H54.3519ZM70.0316 102.064C70.0316 102.544 69.9996 102.976 69.9356 103.36H60.2156C60.2956 104.32 60.6316 105.072 61.2236 105.616C61.8156 106.16 62.5436 106.432 63.4076 106.432C64.6556 106.432 65.5436 105.896 66.0716 104.824H69.6956C69.3116 106.104 68.5756 107.16 67.4876 107.992C66.3996 108.808 65.0636 109.216 63.4796 109.216C62.1996 109.216 61.0476 108.936 60.0236 108.376C59.0156 107.8 58.2236 106.992 57.6476 105.952C57.0876 104.912 56.8076 103.712 56.8076 102.352C56.8076 100.976 57.0876 99.768 57.6476 98.728C58.2076 97.688 58.9916 96.888 59.9996 96.328C61.0076 95.768 62.1676 95.488 63.4796 95.488C64.7436 95.488 65.8716 95.76 66.8636 96.304C67.8716 96.848 68.6476 97.624 69.1916 98.632C69.7516 99.624 70.0316 100.768 70.0316 102.064ZM66.5516 101.104C66.5356 100.24 66.2236 99.552 65.6156 99.04C65.0076 98.512 64.2636 98.248 63.3836 98.248C62.5516 98.248 61.8476 98.504 61.2716 99.016C60.7116 99.512 60.3676 100.208 60.2396 101.104H66.5516ZM85.2041 95.704L76.9721 115.288H73.3961L76.2761 108.664L70.9481 95.704H74.7161L78.1481 104.992L81.6281 95.704H85.2041Z" fill="url(#paint4_radial)"/>
<defs>
<linearGradient id="paint0_linear" x1="-1.23584" y1="7.29278" x2="26.6326" y2="56.0645" gradientUnits="userSpaceOnUse">
<stop stop-color="#78BEFF"/>
<stop offset="1" stop-color="#5463F8"/>
</linearGradient>
<linearGradient id="paint1_linear" x1="63.0992" y1="0.155921" x2="19.3939" y2="26.1257" gradientUnits="userSpaceOnUse">
<stop stop-color="#ADF7D8"/>
<stop offset="1" stop-color="#25BAAD"/>
</linearGradient>
<linearGradient id="paint2_linear" x1="78.2101" y1="61.1862" x2="49.0726" y2="17.7987" gradientUnits="userSpaceOnUse">
<stop stop-color="#FFEF9C"/>
<stop offset="1" stop-color="#F8BD4F"/>
</linearGradient>
<linearGradient id="paint3_linear" x1="1.99213" y1="58.0796" x2="69.0046" y2="58.0796" gradientUnits="userSpaceOnUse">
<stop stop-color="#F79788"/>
<stop offset="1" stop-color="#EF4A66"/>
</linearGradient>
<radialGradient id="paint4_radial" cx="0" cy="0" r="1" gradientUnits="userSpaceOnUse" gradientTransform="translate(4 119) scale(82 195.889)">
<stop offset="0.0156768" stop-color="#F26372"/>
<stop offset="0.497876" stop-color="#FCD472"/>
<stop offset="0.712347" stop-color="#3CC5B5"/>
<stop offset="1" stop-color="#607FFB"/>
</radialGradient>
<clipPath id="clip0">
<rect width="75" height="75" fill="white" transform="translate(2)"/>
</clipPath>
</defs>
</svg>
