<svg width="250" height="265" viewBox="0 0 250 265" fill="none" xmlns="http://www.w3.org/2000/svg">
<path d="M202.34 117.658L184.202 264.305H180.602L198.739 117.658H202.34Z" fill="#D2DCFF"/>
<path d="M124.412 173.28L113.433 264.304H109.832L120.811 173.28H124.412Z" fill="#D2DCFF"/>
<path d="M75.8938 173.279L74.6578 183.516L64.9148 264.304H61.313L71.1063 183.116L72.2919 173.279H75.8938Z" fill="#D2DCFF"/>
<path d="M124.412 264.304H120.811L119.293 251.714L117.493 236.788L111.57 187.691L109.832 173.279H113.434L115.221 188.103L119.293 221.859L121.093 236.786L124.412 264.304Z" fill="#D2DCFF"/>
<path d="M172.931 264.304H169.329L160.808 193.653H160.807L158.35 173.279H161.952L164.457 194.046L172.931 264.304Z" fill="#D2DCFF"/>
<path d="M76.0681 112.433H72.4673V167.493H76.0681V112.433Z" fill="#D2DCFF"/>
<path d="M125 112.433H121.4V167.493H125V112.433Z" fill="#D2DCFF"/>
<path d="M163.463 167.492H113.988C115.586 167.492 116.882 168.788 116.882 170.386C116.882 171.983 115.586 173.279 113.988 173.279H163.463C165.061 173.279 166.357 171.983 166.357 170.386C166.357 168.788 165.062 167.492 163.463 167.492Z" fill="#D2DCFF"/>
<path d="M116.882 170.386C116.882 168.788 115.586 167.492 113.989 167.492H76.1454H71.2713C69.6726 167.492 68.3777 168.788 68.3777 170.386C68.3777 171.983 69.6737 173.279 71.2713 173.279H76.1454H113.989C115.587 173.28 116.882 171.984 116.882 170.386Z" fill="#86A2E2"/>
<path d="M126.505 112.433H70.9639C67.9431 112.433 65.4937 109.983 65.4937 106.962V76.4674C65.4937 73.4466 67.9431 70.9972 70.9639 70.9972H126.505C129.526 70.9972 131.975 73.4466 131.975 76.4674V106.962C131.975 109.983 129.526 112.433 126.505 112.433Z" fill="#D2DCFF"/>
<path d="M75.8937 173.279L74.6589 183.516C73.3588 183.37 72.1688 183.236 71.1062 183.116L72.2929 173.279H75.8937Z" fill="#AEC3FF"/>
<path d="M113.434 173.279L115.222 188.102C113.999 187.964 112.781 187.827 111.571 187.69L109.833 173.278H113.434V173.279Z" fill="#AEC3FF"/>
<path d="M164.457 194.046C163.295 193.922 162.078 193.79 160.81 193.653H160.808L158.352 173.279H161.953L164.457 194.046Z" fill="#AEC3FF"/>
<path d="M72.4673 112.433H76.0692V120.037L72.4673 119.638V112.433Z" fill="#AEC3FF"/>
<path d="M124.999 112.433V125.453L121.399 125.055V112.433H124.999Z" fill="#AEC3FF"/>
<path d="M132.043 15.8071C127.812 22.8065 114.88 32.878 95.6509 26.7304V26.7315C95.5909 26.7229 95.531 26.7176 95.4678 26.7176C90.8933 26.7176 90.5744 39.4397 98.2725 40.1748C98.3859 40.5483 98.5026 40.9036 98.6214 41.2353V61.9241H115.986V53.8825C117.196 54.2238 118.356 54.4197 119.418 54.4197C126.601 54.4197 139.086 43.3401 139.37 25.8862C137.448 25.4528 132.043 20.6899 132.043 15.8071Z" fill="#FCBEB7"/>
<path d="M143.018 20.8097C143.018 9.31392 132.879 0 117.675 0C105.04 0 100.697 6.9726 100.697 6.9726C100.697 6.9726 88.7542 9.55361 88.7542 24.3945C88.7542 38.1898 88.7542 61.9251 88.7542 61.9251H108.378H109.379H123.872H139.626V31.0171C140.872 29.4891 143.018 26.0895 143.018 20.8097ZM119.419 54.4197C118.357 54.4197 117.197 54.2238 115.986 53.8825V61.9241H98.6223V41.2353C98.5035 40.9035 98.3869 40.5483 98.2735 40.1748C90.5754 39.4397 90.8942 26.7176 95.4688 26.7176C95.5308 26.7176 95.5918 26.7229 95.6518 26.7315V26.7304C114.881 32.878 127.813 22.8054 132.044 15.8071C132.044 20.6909 137.449 25.4528 139.372 25.8872C139.086 43.3401 126.6 54.4197 119.419 54.4197Z" fill="#311643"/>
<path d="M85.0217 60.3992L98.6223 54.0986L106.085 54.2955L115.986 54.762L130.214 59.083V77.2368H85.0217V60.3992Z" fill="#FCBEB7"/>
<path d="M130.214 78.3486V59.083L115.985 54.7621V53.8825C111.962 52.7471 107.388 49.997 104.029 47.431L130.214 78.3486Z" fill="#F9AFAB"/>
<path d="M106.712 40.6221C109.328 40.6221 111.449 38.5012 111.449 35.8849C111.449 33.2686 109.328 31.1477 106.712 31.1477C104.096 31.1477 101.975 33.2686 101.975 35.8849C101.975 38.5012 104.096 40.6221 106.712 40.6221Z" fill="#F49795"/>
<path d="M138.761 31.9524C138.161 35.1337 137.154 38.0347 135.883 40.6157C133.377 40.4916 131.385 38.421 131.385 35.8849C131.385 33.2686 133.506 31.1488 136.122 31.1488C137.098 31.1488 138.007 31.4441 138.761 31.9524Z" fill="#F49795"/>
<path d="M130.748 21.4785C127.289 21.4785 124.433 24.1077 124.074 27.4731C122.194 26.5881 120.534 27.0675 119.658 27.4699C119.296 24.1066 116.442 21.4785 112.985 21.4785C109.283 21.4785 106.272 24.4897 106.272 28.1911C106.272 31.8925 109.283 34.9037 112.985 34.9037C116.604 34.9037 119.561 32.0251 119.691 28.4372C120.248 28.1162 122.019 27.2986 124.042 28.4447C124.176 32.0284 127.132 34.9037 130.748 34.9037C134.449 34.9037 137.461 31.8925 137.461 28.1911C137.462 24.4897 134.45 21.4785 130.748 21.4785ZM112.985 34.0251C109.768 34.0251 107.151 31.4077 107.151 28.1911C107.151 24.9734 109.768 22.356 112.985 22.356C116.202 22.356 118.82 24.9734 118.82 28.1911C118.82 31.4088 116.202 34.0251 112.985 34.0251ZM130.748 34.0251C127.531 34.0251 124.913 31.4077 124.913 28.1911C124.913 24.9734 127.53 22.356 130.748 22.356C133.966 22.356 136.583 24.9734 136.583 28.1911C136.583 31.4088 133.966 34.0251 130.748 34.0251Z" fill="white"/>
<path d="M130.753 32.4842C130.225 32.4842 129.796 32.0551 129.796 31.5265V29.7374C129.796 29.2087 130.225 28.7796 130.753 28.7796C131.282 28.7796 131.711 29.2087 131.711 29.7374V31.5265C131.711 32.0551 131.282 32.4842 130.753 32.4842Z" fill="#311643"/>
<path d="M113.277 32.4842C112.747 32.4842 112.319 32.0551 112.319 31.5265V29.7374C112.319 29.2087 112.748 28.7796 113.277 28.7796C113.806 28.7796 114.235 29.2087 114.235 29.7374V31.5265C114.235 32.0551 113.806 32.4842 113.277 32.4842Z" fill="#311643"/>
<path d="M120.116 43.8612C118.406 43.8612 117.242 43.2181 116.536 42.6328C115.647 41.8944 115.278 41.0886 115.262 41.0544C115.162 40.8329 115.261 40.5729 115.482 40.4734C115.703 40.3738 115.963 40.4723 116.062 40.6917C116.113 40.8008 117.327 43.3465 120.855 42.9388C121.097 42.911 121.314 43.0833 121.342 43.324C121.37 43.5648 121.198 43.7831 120.957 43.8109C120.662 43.8462 120.382 43.8612 120.116 43.8612Z" fill="#311643"/>
<path d="M159.42 257.461L143.491 250.613L144.308 254.561L124.714 248.408V254.023C124.714 255.997 125.746 257.787 127.369 258.793L129.055 263.61C129.2 264.027 129.593 264.306 130.035 264.306C130.609 264.306 131.073 263.842 131.073 263.268V260.133L144.465 264.305H158.012C159.982 264.305 161.579 262.708 161.579 260.738C161.579 259.312 160.73 258.024 159.42 257.461Z" fill="#2F3D6C"/>
<path d="M194.156 257.461L178.227 250.613L179.043 254.561L159.449 248.408V254.023C159.449 255.997 160.482 257.787 162.105 258.793L163.791 263.61C163.936 264.027 164.329 264.306 164.771 264.306C165.344 264.306 165.809 263.842 165.809 263.268V260.133L179.201 264.305H192.748C194.718 264.305 196.314 262.708 196.314 260.738C196.313 259.312 195.465 258.024 194.156 257.461Z" fill="#2F3D6C"/>
<path d="M124.714 240.94L124.723 248.407L144.309 254.561L143.491 250.613L141.865 249.783L143.287 240.94H124.714Z" fill="#FCBEB7"/>
<path d="M159.449 240.94L159.458 248.407L179.043 254.561L178.227 250.613L176.599 249.785L178.023 240.94H159.449Z" fill="#FCBEB7"/>
<path d="M110.665 135.038V135.739C110.651 153.371 124.942 167.673 142.576 167.673H157.399L159.45 240.939H178.024L191.719 153.582C193.246 143.841 185.714 135.037 175.855 135.037H110.665V135.038Z" fill="#6277D7"/>
<path d="M156.123 159.061L157.398 167.674H154.693L156.123 159.061Z" fill="#4A5EA3"/>
<path d="M81.5256 148.346C82.4555 159.276 91.5982 167.674 102.568 167.674H122.664L124.715 240.94H143.288L156.838 154.507C158.441 144.28 150.536 135.039 140.185 135.039H138.699L134.435 122.295H85.5094L81.7899 142.785C81.456 144.618 81.3673 146.489 81.5256 148.346Z" fill="#6277D7"/>
<path d="M110.084 69.0454C113.382 69.0454 116.019 65.8694 117.798 62.6528H98.9902C101.859 65.8609 105.787 69.0454 110.084 69.0454Z" fill="white"/>
<path d="M145.43 69.5344L144.129 67.5088C142.439 64.8785 140.062 62.7855 137.278 61.4404C136.502 61.0669 135.696 60.7513 134.862 60.4977L120.371 56.0847C120.371 56.609 119.46 59.648 117.799 62.6517C116.021 65.8684 113.383 69.0443 110.085 69.0443C105.788 69.0443 101.86 65.8598 98.9913 62.6517C96.0807 59.3966 94.2627 56.1168 94.2627 56.1168L81.3138 62.1167C76.0137 64.5725 72.1121 69.2969 70.7018 74.9661L64.9299 93.411C63.9422 96.5677 63.4392 99.856 63.4392 103.164V104.692C63.4392 108.656 66.6538 111.87 70.6184 111.87H84.4235L85.5095 122.294H134.434L146.766 71.6125L145.43 69.5344Z" fill="#FE9ECC"/>
<path d="M110.566 73.6211C107.846 73.6211 105.079 72.7928 102.34 71.161C100.165 69.8651 98.0037 68.062 95.9149 65.801C92.3698 61.9626 90.2094 58.0451 90.188 58.0065L90.9156 57.6695C90.937 57.708 93.0312 61.5057 96.5132 65.2724C98.5485 67.4746 100.649 69.2262 102.756 70.4804C105.367 72.0352 107.995 72.8228 110.566 72.8228C112.993 72.8228 115.18 72.0127 117.064 70.4162C118.589 69.1235 119.926 67.314 121.038 65.038C122.949 61.1269 123.534 57.0906 123.539 57.051L124.333 57.2928C124.309 57.4587 123.725 61.3484 121.764 65.3719C120.604 67.7517 119.199 69.6511 117.588 71.0186C115.554 72.7447 113.191 73.6211 110.566 73.6211Z" fill="white"/>
<path d="M191.731 153.486C190.109 155.233 187.791 156.327 185.218 156.327C180.308 156.327 176.326 152.346 176.326 147.436C176.326 142.525 180.307 138.546 185.218 138.546C185.449 138.546 185.679 138.554 185.906 138.571C190.179 142.01 192.624 147.569 191.731 153.486Z" fill="#4A5EA3"/>
<path d="M157.043 151.66C155.539 154.439 152.6 156.326 149.22 156.326C144.309 156.326 140.33 152.345 140.33 147.435C140.33 142.524 144.31 138.544 149.22 138.544C149.698 138.544 150.167 138.583 150.624 138.656C154.506 141.727 156.982 146.453 157.043 151.66Z" fill="#4A5EA3"/>
<path d="M69.895 111.871H123.577V105.095L70.6323 99.0032C66.8004 98.5623 63.4392 101.559 63.4392 105.416C63.4392 108.981 66.3296 111.871 69.895 111.871Z" fill="#FCBEB7"/>
<path d="M190.735 71.6125H135.884C133.685 71.6125 131.752 73.0689 131.145 75.1833L121.662 108.219H100.72C99.7298 108.219 98.8856 108.989 98.8513 109.978C98.8139 111.017 99.6454 111.871 100.676 111.871H126.952H182.628L193.234 74.9276C193.709 73.2668 192.462 71.6125 190.735 71.6125Z" fill="#4A5EA3"/>
<path d="M161.176 93.1606C161.312 91.6181 160.565 90.2924 159.508 90.1994C158.452 90.1065 157.485 91.2816 157.349 92.8241C157.214 94.3666 157.96 95.6924 159.017 95.7853C160.074 95.8782 161.041 94.7031 161.176 93.1606Z" fill="#2F3D6C"/>
<path d="M85.5084 122.294L83.5513 133.076L135.558 125.655L134.433 122.294H85.5084Z" fill="#4A5EA3"/>
<path d="M82.693 65.1963C82.693 68.4494 80.0563 71.086 76.8022 71.086C75.3159 71.086 73.958 70.535 72.9211 69.6265C74.8869 66.3809 77.791 63.7496 81.3115 62.1178L81.7064 61.9348C82.3303 62.8679 82.693 63.9904 82.693 65.1963Z" fill="#FF78BA"/>
<path d="M145.431 69.5344C144.518 70.1165 143.434 70.4525 142.272 70.4525C139.019 70.4525 136.381 67.8159 136.381 64.5628C136.381 63.4168 136.709 62.3457 137.277 61.4404C140.062 62.7844 142.44 64.8775 144.128 67.5088L145.431 69.5344Z" fill="#FF78BA"/>
<path d="M126.594 91.0322C126.366 91.8251 116.404 102.554 116.404 102.554L89.8584 101.214L122.59 104.981L126.594 91.0322Z" fill="#FF78BA"/>
<path d="M21.7385 117.658L16.8868 156.893L3.60079 264.305H0L13.2475 157.199L18.1377 117.658H21.7385Z" fill="#D2DCFF"/>
<path d="M69.3986 264.305H65.7966L52.1437 153.919L47.6589 117.658H51.2597L55.708 153.619L69.3986 264.305Z" fill="#D2DCFF"/>
<path d="M18.1375 117.658H21.7383L16.8866 156.893L13.2473 157.199L18.1375 117.658Z" fill="#AEC3FF"/>
<path d="M51.2597 117.658L55.708 153.619L52.1437 153.919L47.6589 117.658H51.2597Z" fill="#AEC3FF"/>
<path d="M250 264.305H246.398L230.881 138.846L228.26 117.658H231.862L234.446 138.546L250 264.305Z" fill="#D2DCFF"/>
<path d="M234.446 138.546L230.881 138.846L228.26 117.658H231.862L234.446 138.546Z" fill="#AEC3FF"/>
<path d="M241.405 111.871H57.7422V117.658H241.405C243.004 117.658 244.299 116.362 244.299 114.764C244.299 113.166 243.003 111.871 241.405 111.871Z" fill="#D2DCFF"/>
<path d="M20.3569 111.871H9.5043C7.90668 111.871 6.61084 113.167 6.61084 114.764C6.61084 116.362 7.90668 117.658 9.5043 117.658H20.3569H57.7421V111.871H20.3569Z" fill="#86A2E2"/>
<path d="M237.275 105.402V103.927C237.275 103.471 236.904 103.1 236.449 103.1H202.218C200.491 103.1 199.091 104.5 199.091 106.227V108.743C199.091 110.47 200.491 111.87 202.218 111.87H236.449C236.904 111.87 237.275 111.499 237.275 111.044V109.568C237.275 109.112 236.904 108.742 236.449 108.742H203.475C202.781 108.742 202.218 108.179 202.218 107.485C202.218 106.79 202.781 106.227 203.475 106.227H236.449C236.904 106.227 237.275 105.858 237.275 105.402Z" fill="#6277D7"/>
<path d="M235.796 106.227V108.743H203.476C202.781 108.743 202.218 108.18 202.218 107.486C202.218 106.791 202.781 106.228 203.476 106.228H235.796V106.227Z" fill="#D2DCFF"/>
<path d="M234.828 96.6319V95.1563C234.828 94.7004 234.458 94.3302 234.002 94.3302H204.663C202.936 94.3302 201.536 95.7298 201.536 97.4569V99.9726C201.536 101.7 202.936 103.099 204.663 103.099H234.002C234.458 103.099 234.828 102.729 234.828 102.273V100.799C234.828 100.343 234.458 99.9726 234.002 99.9726H205.92C205.226 99.9726 204.663 99.4098 204.663 98.7153C204.663 98.0208 205.226 97.458 205.92 97.458H234.002C234.459 97.458 234.828 97.0877 234.828 96.6319Z" fill="#F9A0C0"/>
<path d="M233.741 97.458V99.9737H205.922C205.227 99.9737 204.664 99.4109 204.664 98.7164C204.664 98.0219 205.227 97.4591 205.922 97.4591H233.741V97.458Z" fill="#FFD9E8"/>
<path d="M36.4809 97.7983H52.6337C53.4309 97.7983 54.0483 98.4938 53.953 99.2857L52.5866 110.7C52.5063 111.368 51.9402 111.871 51.2671 111.871H37.8463C37.1732 111.871 36.6072 111.368 36.527 110.7L35.1604 99.2857C35.0662 98.4938 35.6837 97.7983 36.4809 97.7983Z" fill="#D2DCFF"/>
<path d="M50.1017 93.1403V87.9493L46.9964 93.8497V84.2672L44.5566 90.3003L42.1169 84.2672V93.8497L39.0115 87.9493V93.1403L34.4873 85.8648L36.4808 97.7983H44.5566H52.6336L54.6271 85.8648L50.1017 93.1403Z" fill="#6277D7"/>
<path d="M69.9828 109.701C72.3497 109.701 74.2684 107.782 74.2684 105.415C74.2684 103.048 72.3497 101.129 69.9828 101.129C67.6159 101.129 65.6973 103.048 65.6973 105.415C65.6973 107.782 67.6159 109.701 69.9828 109.701Z" fill="#F9AFAB"/>
</svg>
